<svg version="1.1" id="Layer_1" preserveAspectRatio="none" xmlns="http://www.w3.org/2000/svg" xmlns:xlink="http://www.w3.org/1999/xlink" x="0px" y="0px"
	 viewBox="0 0 427.7 297.2" style="enable-background:new 0 0 427.7 297.2;" xml:space="preserve">
<style type="text/css">
	.st0{fill:#00003A;}
	.st1{fill:#F26E21;}
	.st2{fill:#FFFFFF;}
	.st3{fill:#00B4D0;}
</style>
<rect x="0.2" y="0.5" class="st0" width="427" height="296.3"/>
<g>
	<path class="st1" d="M158.8,189.4l-0.1,0.1c-0.1,0.1-0.2,0.1-0.4,0.3c-0.2,0.1-0.4,0.3-0.6,0.4c-0.2,0.1-0.5,0.2-0.9,0.3
		c-0.4,0.1-0.7,0.1-1.1,0.1c-1.4,0-2.5-0.5-3.4-1.4c-0.9-0.9-1.3-2.1-1.3-3.5c0-1.4,0.4-2.5,1.3-3.5c0.9-0.9,2-1.4,3.4-1.4
		c0.6,0,1.2,0.1,1.7,0.3c0.5,0.2,0.9,0.4,1.1,0.6l0.3,0.3l-0.7,1c0,0-0.1-0.1-0.1-0.1c0,0-0.1-0.1-0.3-0.2c-0.2-0.1-0.3-0.2-0.5-0.3
		c-0.2-0.1-0.4-0.2-0.6-0.2c-0.3-0.1-0.5-0.1-0.8-0.1c-1,0-1.8,0.4-2.4,1.1c-0.6,0.7-0.9,1.6-0.9,2.6c0,1,0.3,1.9,0.9,2.6
		c0.6,0.7,1.4,1.1,2.4,1.1c0.4,0,0.8-0.1,1.2-0.2c0.4-0.2,0.7-0.3,0.9-0.5l0.2-0.2L158.8,189.4z"/>
	<path class="st1" d="M170.3,188.3c0.6-0.7,0.9-1.6,0.9-2.6c0-1-0.3-1.9-0.9-2.6c-0.6-0.7-1.4-1-2.4-1c-1,0-1.8,0.3-2.4,1
		c-0.6,0.7-0.9,1.6-0.9,2.6c0,1,0.3,1.9,0.9,2.6c0.6,0.7,1.4,1,2.4,1C168.9,189.3,169.7,189,170.3,188.3 M164.6,189.2
		c-0.8-0.9-1.3-2.1-1.3-3.5c0-1.4,0.4-2.5,1.3-3.5c0.8-0.9,2-1.4,3.3-1.4c1.4,0,2.5,0.5,3.4,1.4c0.8,0.9,1.3,2.1,1.3,3.5
		c0,1.4-0.4,2.5-1.3,3.5c-0.9,0.9-2,1.4-3.4,1.4C166.6,190.6,165.4,190.1,164.6,189.2"/>
</g>
<polygon class="st1" points="184.7,181.1 184.7,188 179,181.1 178.1,181.1 178.1,190.4 179.4,190.4 179.4,183.3 185,190.4 
	186,190.4 186,181.1 "/>
<g>
	<path class="st1" d="M192.2,188.5c0.1,0.1,0.2,0.1,0.3,0.2c0.1,0.1,0.4,0.2,0.9,0.4c0.5,0.2,0.9,0.2,1.4,0.2c0.7,0,1.2-0.1,1.6-0.4
		c0.3-0.3,0.5-0.6,0.5-1.1c0-0.4-0.2-0.7-0.5-1c-0.3-0.2-0.9-0.5-1.8-0.8c-1.1-0.3-1.9-0.7-2.4-1.1c-0.5-0.4-0.7-1-0.7-1.6
		c0-0.8,0.3-1.4,0.9-1.9c0.6-0.5,1.4-0.7,2.5-0.7c0.7,0,1.2,0.1,1.8,0.2c0.5,0.2,0.9,0.3,1.1,0.5l0.3,0.2l-0.7,1.1
		c-0.1-0.1-0.2-0.1-0.3-0.2c-0.1-0.1-0.4-0.2-0.8-0.3c-0.4-0.1-0.9-0.2-1.3-0.2c-0.6,0-1.1,0.1-1.4,0.4c-0.4,0.2-0.5,0.6-0.5,1
		c0,0.4,0.2,0.6,0.5,0.8c0.3,0.2,0.9,0.5,1.8,0.7c1.1,0.3,1.9,0.7,2.4,1.2c0.5,0.4,0.7,1,0.7,1.7c0,0.8-0.3,1.5-0.9,2
		c-0.6,0.5-1.4,0.8-2.5,0.8c-0.4,0-0.8,0-1.2-0.1c-0.4-0.1-0.7-0.2-1-0.3c-0.3-0.1-0.5-0.2-0.7-0.3c-0.2-0.1-0.3-0.2-0.4-0.3
		l-0.1-0.1L192.2,188.5z"/>
	<path class="st1" d="M204.6,189.4c-0.7-0.8-1-1.8-1-3v-5.4h1.3v5.4c0,0.9,0.2,1.6,0.6,2.1c0.4,0.5,1.1,0.8,1.9,0.8
		c0.8,0,1.5-0.3,1.9-0.8c0.4-0.5,0.6-1.2,0.6-2.1v-5.4h1.3v5.4c0,1.2-0.3,2.2-1,3c-0.7,0.8-1.6,1.1-2.8,1.1
		C206.2,190.6,205.3,190.2,204.6,189.4"/>
</g>
<polygon class="st1" points="217.2,181.1 217.2,190.4 223.2,190.4 223.2,189.2 218.5,189.2 218.5,181.1 "/>
<polygon class="st1" points="226.2,181.1 226.2,182.2 229.2,182.2 229.2,190.4 230.4,190.4 230.4,182.2 233.4,182.2 233.4,181.1 "/>
<rect x="238.8" y="181.1" class="st1" width="1.3" height="9.3"/>
<polygon class="st1" points="252.8,181.1 252.8,188 247.1,181.1 246.2,181.1 246.2,190.4 247.5,190.4 247.5,183.3 253.1,190.4 
	254,190.4 254,181.1 "/>
<g>
	<path class="st1" d="M267.1,186.3H264v-1.1h4.4v0.8c0,1.4-0.4,2.5-1.1,3.3c-0.7,0.8-1.8,1.2-3.1,1.2c-1.4,0-2.5-0.5-3.3-1.4
		c-0.8-0.9-1.3-2.1-1.3-3.5c0-1.4,0.4-2.5,1.3-3.5c0.8-0.9,2-1.4,3.4-1.4c0.4,0,0.8,0,1.2,0.1c0.4,0.1,0.7,0.2,0.9,0.3
		c0.2,0.1,0.5,0.2,0.6,0.4c0.2,0.1,0.3,0.2,0.4,0.3l0.1,0.1l-0.8,1c-0.1-0.1-0.2-0.2-0.3-0.3c-0.1-0.1-0.4-0.3-0.8-0.4
		c-0.4-0.2-0.9-0.3-1.4-0.3c-1,0-1.8,0.3-2.4,1c-0.6,0.7-0.9,1.6-0.9,2.6c0,1,0.3,1.9,0.9,2.6c0.6,0.7,1.4,1,2.4,1
		c0.9,0,1.6-0.3,2.1-0.8S267.1,187.3,267.1,186.3L267.1,186.3z"/>
	<path class="st2" d="M133.4,166.3h-10.8c-0.6,0-0.7-0.1-0.7-0.6V148h-15.2v17.7c0,0.5-0.1,0.6-0.5,0.6H95.3c-0.6,0-0.6,0.1-0.6-0.6
		v-44.3c0-0.7,0-0.6,0.6-0.6h10.9c0.5,0,0.5,0.1,0.5,0.6v15.8H122v-15.8c0-0.5,0.1-0.6,0.7-0.6h10.8c0.6,0,0.6-0.1,0.6,0.6v44.3
		C134.1,166.4,134.1,166.3,133.4,166.3"/>
	<path class="st2" d="M219.1,130.6l-11.5-0.1v35.2c0,0.5-0.1,0.6-0.6,0.6h-11.1c-0.7,0-0.7,0.1-0.7-0.6v-35.2l-11.8,0.1
		c-0.5,0-0.5-0.1-0.5-0.5v-8.7c0-0.5,0-0.7,0.5-0.7H219c0.5,0,0.5,0.1,0.5,0.7v8.7C219.5,130.5,219.5,130.6,219.1,130.6"/>
	<path class="st2" d="M246.3,167.4c-14.3,0-23.8-10.8-23.8-23.7c0-13.8,10.3-23.9,23.5-23.9c11.1,0,17.8,6,20.9,12.8
		c0.3,0.8,0.1,1.1-0.2,1.2l-10,3.9c-0.4,0.1-0.5,0-0.6-0.3c-1.9-4-5.2-6.1-9.8-6.1c-6.7,0-10.5,5.3-10.5,12.5
		c0,8.4,5,12.2,10.7,12.2c4.6,0,7.8-2.2,9.4-5.6c0.2-0.3,0.3-0.6,0.8-0.5l10.1,2.8c0.7,0.1,0.7,0.5,0.6,0.9
		C264.3,160.8,256.8,167.4,246.3,167.4"/>
	<path class="st1" d="M332.7,159.9c0,4.2-3.4,7.6-7.6,7.6c-4.2,0-7.6-3.4-7.6-7.6s3.4-7.6,7.6-7.6
		C329.3,152.3,332.7,155.7,332.7,159.9"/>
	<path class="st2" d="M311.4,120.8h-10.8c-0.6,0-0.7,0.1-0.7,0.6v15.8h-15.2v-15.8c0-0.5-0.1-0.6-0.5-0.6h-10.9
		c-0.6,0-0.6-0.1-0.6,0.6V136c4.2,0,7.6,3.4,7.6,7.6c0,4.2-3.4,7.6-7.6,7.6v14.5c0,0.7,0,0.6,0.6,0.6h10.9c0.5,0,0.5-0.1,0.5-0.6
		V148h15.2v17.7c0,0.5,0.1,0.6,0.7,0.6h10.8c0.6,0,0.6,0.1,0.6-0.6v-44.3C312,120.7,312,120.8,311.4,120.8"/>
	<path class="st3" d="M265,143.6c0,4.2,3.4,7.6,7.6,7.6V136C268.4,136,265,139.4,265,143.6"/>
	<path class="st2" d="M187.4,165.4c-7.4-14.8-16.8-34.1-22.9-46c-0.1-0.2-0.4-0.1-0.8-0.1s-0.7,0-0.8,0.1
		c-5.2,9.8-15.8,31.2-22.8,46c-0.3,0.7-0.2,0.9,0.3,0.9h11.1c0.9,0,1-0.2,1.2-0.7c0.7-1.6,10.3-24.7,10.3-24.7s10,23.1,10.8,24.9
		c0.2,0.5,0.5,0.5,0.8,0.5h12.5C187.7,166.3,187.8,166.2,187.4,165.4"/>
</g>
</svg>
